<?xml version="1.0" standalone="no"?>
<!DOCTYPE svg PUBLIC "-//W3C//DTD SVG 20010904//EN"
 "http://www.w3.org/TR/2001/REC-SVG-20010904/DTD/svg10.dtd">
<svg version="1.0" xmlns="http://www.w3.org/2000/svg"
 width="36.000000pt" height="31.000000pt" viewBox="0 0 36.000000 31.000000"
 preserveAspectRatio="xMidYMid meet">

<g transform="translate(0.000000,31.000000) scale(0.100000,-0.100000)"
fill="#000000" stroke="none">
<path d="M0 301 c0 -6 15 -11 33 -13 31 -3 33 -6 49 -73 10 -40 15 -86 12
-107 -4 -24 -1 -39 8 -45 7 -4 13 -19 13 -33 0 -20 5 -25 25 -25 21 0 25 4 23
28 -2 26 0 27 52 27 52 0 54 -1 52 -27 -2 -24 2 -28 23 -28 22 0 25 5 27 38
l1 37 -104 0 c-138 0 -136 18 3 22 l107 3 18 60 c33 110 39 105 -116 105 -125
0 -134 1 -139 20 -4 16 -14 20 -46 20 -23 0 -41 -4 -41 -9z m340 -58 c0 -4 -7
-33 -16 -65 l-17 -59 -90 3 -91 3 -13 50 c-20 79 -26 75 107 75 66 0 120 -3
120 -7z m-190 -213 c0 -5 -4 -10 -10 -10 -5 0 -10 5 -10 10 0 6 5 10 10 10 6
0 10 -4 10 -10z m150 0 c0 -5 -4 -10 -10 -10 -5 0 -10 5 -10 10 0 6 5 10 10
10 6 0 10 -4 10 -10z"/>
</g>
</svg>
