<?xml version="1.0" standalone="no"?>
<!DOCTYPE svg PUBLIC "-//W3C//DTD SVG 20010904//EN"
 "http://www.w3.org/TR/2001/REC-SVG-20010904/DTD/svg10.dtd">
<svg version="1.0" xmlns="http://www.w3.org/2000/svg"
 width="980.000000pt" height="666.000000pt" viewBox="0 0 980.000000 666.000000"
 preserveAspectRatio="xMidYMid meet">

<g transform="translate(0.000000,666.000000) scale(0.100000,-0.100000)"
fill="#000000" stroke="none">
<path d="M660 6635 c-166 -34 -286 -100 -416 -230 -83 -83 -108 -116 -147
-191 -25 -50 -56 -126 -69 -170 l-23 -79 0 -2635 0 -2635 23 -78 c83 -287 292
-495 587 -584 57 -17 251 -18 4240 -21 3132 -2 4199 0 4255 9 314 48 570 278
662 595 l23 79 0 2635 0 2635 -23 78 c-89 309 -332 534 -640 593 -107 20
-8372 19 -8472 -1z m8080 -609 c-60 -58 -3219 -2856 -3325 -2944 -128 -107
-275 -205 -367 -245 -103 -44 -193 -44 -296 0 -94 41 -240 139 -380 256 -98
82 -3208 2837 -3307 2929 l-40 37 3875 1 3875 0 -35 -34z m-6840 -1627 c673
-591 1230 -1079 1238 -1085 12 -8 -240 -240 -1252 -1152 -696 -628 -1268
-1142 -1271 -1142 -3 0 -5 1016 -5 2257 l0 2257 33 -31 c17 -16 583 -513 1257
-1104z m7288 -2250 l-3 -1132 -1268 1143 -1267 1144 32 27 c18 15 589 515
1268 1112 l1235 1084 3 -1123 c1 -617 1 -1632 0 -2255z m-5381 520 c236 -208
303 -261 403 -319 362 -211 884 -233 1278 -54 126 57 255 152 495 364 l229
200 36 -32 c21 -17 593 -525 1272 -1127 l1234 -1096 -1927 -3 c-1060 -1 -2794
-1 -3854 0 l-1926 3 1233 1095 c678 602 1249 1109 1269 1127 20 18 37 32 38
33 1 0 100 -86 220 -191z"/>
</g>
</svg>
