<svg xmlns="http://www.w3.org/2000/svg" width="20.95" height="21.14" viewBox="0 0 20.95 21.14"><defs><style>.cls-1{fill:#19232c;}</style></defs><g id="Слой_2" data-name="Слой 2"><g id="Слой_1-2" data-name="Слой 1"><path class="cls-1" d="M20.89,6.21a7.74,7.74,0,0,0-.49-2.56,5.26,5.26,0,0,0-1.21-1.88A5.32,5.32,0,0,0,17.34.55,7.67,7.67,0,0,0,14.79.06C13.68,0,13.32,0,10.48,0S7.27,0,6.16.06A7.67,7.67,0,0,0,3.61.55,5.18,5.18,0,0,0,1.76,1.77,5.26,5.26,0,0,0,.55,3.65,7.74,7.74,0,0,0,.06,6.21C0,7.34,0,7.7,0,10.57s0,3.23.06,4.36a7.74,7.74,0,0,0,.49,2.56,5.14,5.14,0,0,0,1.21,1.87,5.05,5.05,0,0,0,1.85,1.22,7.67,7.67,0,0,0,2.55.49c1.11.06,1.47.07,4.32.07s3.2,0,4.31-.07a7.67,7.67,0,0,0,2.55-.49,5.05,5.05,0,0,0,1.85-1.22,5.14,5.14,0,0,0,1.21-1.87,7.74,7.74,0,0,0,.49-2.56c.05-1.13.06-1.49.06-4.36S20.94,7.34,20.89,6.21ZM19,14.84a5.54,5.54,0,0,1-.36,2A3.32,3.32,0,0,1,17.86,18a3.26,3.26,0,0,1-1.21.79,6,6,0,0,1-1.94.36c-1.11,0-1.44.06-4.23.06s-3.13,0-4.24-.06a6,6,0,0,1-1.94-.36A3.26,3.26,0,0,1,3.09,18a3.32,3.32,0,0,1-.78-1.22,6.05,6.05,0,0,1-.36-2c-.05-1.11-.06-1.45-.06-4.27S1.9,7.41,2,6.3a6.05,6.05,0,0,1,.36-2,3.32,3.32,0,0,1,.78-1.22A3.26,3.26,0,0,1,4.3,2.33,5.69,5.69,0,0,1,6.24,2c1.11-.05,1.44-.07,4.24-.07s3.12,0,4.23.07a5.69,5.69,0,0,1,1.94.36,3.26,3.26,0,0,1,1.21.79,3.32,3.32,0,0,1,.78,1.22,5.79,5.79,0,0,1,.36,2c.05,1.11.06,1.45.06,4.27S19.05,13.73,19,14.84Z"/><path class="cls-1" d="M10.48,5.14a5.43,5.43,0,1,0,5.37,5.43A5.4,5.4,0,0,0,10.48,5.14Zm0,9A3.52,3.52,0,1,1,14,10.57,3.51,3.51,0,0,1,10.48,14.09Z"/><path class="cls-1" d="M16.07,3.66a1.27,1.27,0,1,0,1.25,1.27A1.26,1.26,0,0,0,16.07,3.66Z"/></g></g></svg>