<?xml version="1.0" standalone="no"?>
<!DOCTYPE svg PUBLIC "-//W3C//DTD SVG 20010904//EN"
 "http://www.w3.org/TR/2001/REC-SVG-20010904/DTD/svg10.dtd">
<svg version="1.0" xmlns="http://www.w3.org/2000/svg"
 width="512.000000pt" height="512.000000pt" viewBox="0 0 512.000000 512.000000"
 preserveAspectRatio="xMidYMid meet">

<g transform="translate(0.000000,512.000000) scale(0.100000,-0.100000)"
fill="#000000" stroke="none">
<path d="M1920 5109 c-379 -38 -748 -183 -1065 -418 -125 -93 -329 -296 -422
-421 -373 -497 -511 -1108 -388 -1710 84 -412 284 -780 588 -1083 332 -330
732 -531 1202 -603 132 -20 417 -22 555 -5 373 48 728 191 1018 409 l73 56
647 -647 c669 -668 689 -686 767 -687 115 0 225 104 225 215 0 89 -6 95 -687
777 l-646 647 54 73 c219 292 352 619 405 992 22 150 22 437 0 581 -71 467
-280 879 -613 1211 -454 452 -1080 676 -1713 613z m449 -435 c516 -75 945
-358 1222 -805 113 -181 188 -386 230 -629 17 -97 18 -411 1 -510 -65 -379
-223 -689 -483 -949 -327 -328 -745 -501 -1205 -501 -467 0 -882 174 -1214
510 -319 322 -490 740 -490 1196 0 462 172 877 499 1205 267 266 593 429 966
484 126 18 347 18 474 -1z"/>
</g>
</svg>
