<?xml version="1.0" encoding="UTF-8"?><svg xmlns="http://www.w3.org/2000/svg" width="24.42" height="21.26" viewBox="0 0 24.42 21.26"><defs><style>.d{fill:#fff;}.e{fill:#19232c;}</style></defs><g id="a"/><g id="b"><g id="c"><g><path class="e" d="M0,9.38c.13-.29,.38-.42,.66-.53C8.22,5.94,15.78,3.02,23.35,.11c.15-.06,.31-.11,.46-.11,.42,0,.69,.4,.6,.85-.26,1.29-.53,2.58-.8,3.87-.88,4.25-1.77,8.5-2.65,12.76-.22,1.06-.44,2.11-.66,3.17-.13,.6-.63,.79-1.13,.43-1.8-1.3-3.6-2.61-5.4-3.92-.58-.42-.93-.41-1.49,.04-.95,.78-1.91,1.56-2.87,2.34-.5,.41-1,.26-1.19-.37-.68-2.19-1.37-4.38-2.04-6.57-.07-.22-.17-.34-.39-.42-1.72-.63-3.44-1.28-5.16-1.92-.28-.1-.51-.25-.62-.54v-.33Zm7.36,2.77c.01,.08,.03,.2,.06,.31,.38,1.34,.76,2.69,1.15,4.03,.05,.17,.12,.32,.33,.3,.2-.02,.24-.17,.27-.34,.08-.61,.18-1.23,.24-1.84,.07-.68,.35-1.22,.86-1.69,2.85-2.63,5.69-5.28,8.53-7.92,.1-.1,.22-.18,.31-.3,.04-.06,.06-.19,.02-.25-.04-.05-.16-.06-.24-.05-.06,0-.11,.06-.16,.09-2.55,1.57-5.1,3.14-7.65,4.71-1.03,.64-2.07,1.28-3.1,1.91-.38,.23-.58,.55-.61,1.03Z"/><path class="d" d="M7.36,12.15c.02-.48,.23-.8,.61-1.03,1.04-.63,2.07-1.27,3.1-1.91,2.55-1.57,5.1-3.14,7.65-4.71,.05-.03,.11-.09,.16-.09,.08,0,.21,0,.24,.05,.04,.05,.02,.18-.02,.25-.08,.11-.2,.2-.31,.3-2.84,2.64-5.68,5.29-8.53,7.92-.51,.47-.8,1.01-.86,1.69-.06,.62-.16,1.23-.24,1.84-.02,.17-.06,.32-.27,.34-.22,.02-.28-.13-.33-.3-.38-1.34-.76-2.69-1.15-4.03-.03-.11-.05-.23-.06-.31Z"/></g></g></g></svg>